<svg width="24" height="24" viewBox="0 0 24 24" fill="none" xmlns="http://www.w3.org/2000/svg">
<g clip-path="url(#clip0_86_225)">
<circle cx="12" cy="12" r="11.5" fill="#242424" stroke="#3C56D8"/>
<path d="M4.13333 19.6785C3.63742 19.4061 3.45207 18.7796 3.77378 18.3141C4.59072 17.1322 5.65526 16.1367 6.89786 15.3995C8.43506 14.4876 10.1886 14.0043 11.9759 14C13.7632 13.9957 15.5191 14.4705 17.0606 15.375C18.3068 16.1062 19.3761 17.0965 20.1987 18.2745C20.5227 18.7384 20.3403 19.3658 19.8458 19.6406V19.6406C19.3512 19.9154 18.7325 19.7323 18.3964 19.2772C17.76 18.4153 16.9538 17.688 16.0237 17.1422C14.798 16.4231 13.402 16.0455 11.9808 16.049C10.5597 16.0524 9.1655 16.4366 7.94327 17.1617C7.01581 17.7119 6.21312 18.4431 5.58091 19.308C5.24703 19.7648 4.62923 19.9509 4.13333 19.6785V19.6785Z" fill="#F1F1F1"/>
<path d="M17 8C17 10.7614 14.7614 13 12 13C9.23858 13 7 10.7614 7 8C7 5.23858 9.23858 3 12 3C14.7614 3 17 5.23858 17 8ZM8.96516 8C8.96516 9.67609 10.3239 11.0348 12 11.0348C13.6761 11.0348 15.0348 9.67609 15.0348 8C15.0348 6.32391 13.6761 4.96516 12 4.96516C10.3239 4.96516 8.96516 6.32391 8.96516 8Z" fill="#F1F1F1"/>
</g>
<defs>
<clipPath id="clip0_86_225">
<rect width="24" height="24" fill="white"/>
</clipPath>
</defs>
</svg>
