<svg width="24" height="24" viewBox="0 0 24 24" fill="none" xmlns="http://www.w3.org/2000/svg">
<g clip-path="url(#clip0_101_630)">
<path d="M18.2643 7.85133C17.8161 7.55609 17.2352 7.69356 16.9668 8.15837C16.6984 8.62319 16.8442 9.23934 17.2925 9.53458L22.3502 12.866C22.7984 13.1613 23.3793 13.0238 23.6477 12.559C23.9161 12.0942 23.7703 11.478 23.322 11.1828L18.2643 7.85133Z" fill="#F1F1F1"/>
<path d="M5.6693 8.03458C6.11752 7.73934 6.69843 7.87681 6.96679 8.34163C7.23516 8.80644 7.08935 9.42259 6.64112 9.71783L1.58338 13.0493C1.13516 13.3445 0.554247 13.2071 0.285885 12.7422C0.017523 12.2774 0.163331 11.6613 0.611556 11.366L5.6693 8.03458Z" fill="#F1F1F1"/>
<path d="M17.3398 14.5448C16.8915 14.8401 16.7457 15.4562 17.0141 15.921C17.2824 16.3859 17.8634 16.5233 18.3116 16.2281L23.3693 12.8966C23.8176 12.6014 23.9634 11.9852 23.695 11.5204C23.4266 11.0556 22.8457 10.9181 22.3975 11.2134L17.3398 14.5448Z" fill="#F1F1F1"/>
<path d="M6.59383 14.7281C7.04206 15.0234 7.18787 15.6395 6.91951 16.1043C6.65114 16.5691 6.07023 16.7066 5.62201 16.4114L0.564269 13.0799C0.116043 12.7847 -0.0297648 12.1685 0.238597 11.7037C0.506959 11.2389 1.08787 11.1014 1.53609 11.3967L6.59383 14.7281Z" fill="#F1F1F1"/>
<path d="M13.8143 3.93969C14.0032 3.42072 14.5771 3.15313 15.0961 3.34202C15.615 3.53091 15.8826 4.10476 15.6937 4.62373L10.2214 19.6588C10.0325 20.1778 9.45867 20.4454 8.93969 20.2565C8.42072 20.0676 8.15313 19.4938 8.34202 18.9748L13.8143 3.93969Z" fill="#F1F1F1"/>
</g>
<defs>
<clipPath id="clip0_101_630">
<rect width="24" height="24" fill="white"/>
</clipPath>
</defs>
</svg>
