<svg width="24" height="24" viewBox="0 0 24 24" fill="none" xmlns="http://www.w3.org/2000/svg">
<path d="M9 2C9 1.44772 9.44772 1 10 1H14C14.5523 1 15 1.44772 15 2C15 2.55228 14.5523 3 14 3H10C9.44772 3 9 2.55228 9 2Z" fill="#F1F1F1"/>
<path d="M4 3C4 2.44772 4.44772 2 5 2H19C19.5523 2 20 2.44772 20 3C20 3.55228 19.5523 4 19 4H5C4.44772 4 4 3.55228 4 3Z" fill="#F1F1F1"/>
<path d="M5 4C5 3.44772 5.44772 3 6 3C6.55228 3 7 3.44772 7 4V22C7 22.5523 6.55228 23 6 23C5.44772 23 5 22.5523 5 22V4Z" fill="#F1F1F1"/>
<path d="M17 4C17 3.44772 17.4477 3 18 3C18.5523 3 19 3.44772 19 4V22C19 22.5523 18.5523 23 18 23C17.4477 23 17 22.5523 17 22V4Z" fill="#F1F1F1"/>
<path d="M5 22C5 21.4477 5.44772 21 6 21H18C18.5523 21 19 21.4477 19 22C19 22.5523 18.5523 23 18 23H6C5.44772 23 5 22.5523 5 22Z" fill="#F1F1F1"/>
<path d="M9 7C9 6.44772 9.44772 6 10 6C10.5523 6 11 6.44772 11 7V18C11 18.5523 10.5523 19 10 19C9.44772 19 9 18.5523 9 18V7Z" fill="#F1F1F1"/>
<path d="M13 7C13 6.44772 13.4477 6 14 6C14.5523 6 15 6.44772 15 7V18C15 18.5523 14.5523 19 14 19C13.4477 19 13 18.5523 13 18V7Z" fill="#F1F1F1"/>
</svg>
