<svg width="24" height="24" viewBox="0 0 24 24" fill="none" xmlns="http://www.w3.org/2000/svg">
<path d="M2 3C2 2.44772 2.44772 2 3 2H14C14.5523 2 15 2.44772 15 3C15 3.55228 14.5523 4 14 4H3C2.44772 4 2 3.55228 2 3Z" fill="#F1F1F1"/>
<path d="M2 7C2 6.44772 2.44772 6 3 6H18C18.5523 6 19 6.44772 19 7C19 7.55228 18.5523 8 18 8H3C2.44772 8 2 7.55228 2 7Z" fill="#F1F1F1"/>
<path d="M2 11C2 10.4477 2.44772 10 3 10H15C15.5523 10 16 10.4477 16 11C16 11.5523 15.5523 12 15 12H3C2.44772 12 2 11.5523 2 11Z" fill="#F1F1F1"/>
<path d="M2 15C2 14.4477 2.44772 14 3 14H7C7.55228 14 8 14.4477 8 15C8 15.5523 7.55228 16 7 16H3C2.44772 16 2 15.5523 2 15Z" fill="#F1F1F1"/>
<path d="M17 15C17 14.4477 17.4477 14 18 14C18.5523 14 19 14.4477 19 15V21C19 21.5523 18.5523 22 18 22C17.4477 22 17 21.5523 17 21V15Z" fill="#F1F1F1"/>
<path d="M21 17C21.5523 17 22 17.4477 22 18C22 18.5523 21.5523 19 21 19L15 19C14.4477 19 14 18.5523 14 18C14 17.4477 14.4477 17 15 17L21 17Z" fill="#F1F1F1"/>
</svg>
