<svg width="24" height="24" viewBox="0 0 24 24" fill="none" xmlns="http://www.w3.org/2000/svg">
<path d="M14 22C14 21.4477 14.4477 21 15 21H22C22.5523 21 23 21.4477 23 22C23 22.5523 22.5523 23 22 23H15C14.4477 23 14 22.5523 14 22Z" fill="#F1F1F1"/>
<path d="M1 22C1 21.4477 1.44772 21 2 21H9C9.55229 21 10 21.4477 10 22C10 22.5523 9.55229 23 9 23H2C1.44772 23 1 22.5523 1 22Z" fill="#F1F1F1"/>
<path d="M21 13C21 12.4477 19.5 12 22 12C22.3179 12 23 11 23 13V22C23 22.5523 22.5523 23 22 23C21.4477 23 21 22.5523 21 22V13Z" fill="#F1F1F1"/>
<path d="M3 12.7785C3 12.2262 4.5 11.7785 2 11.7785C1.6821 11.7785 1.00001 10.7785 1 12.7785V21.7785C1 22.3307 1.44772 22.7785 2 22.7785C2.55228 22.7785 3 22.3307 3 21.7785V12.7785Z" fill="#F1F1F1"/>
<path d="M12.7003 1.72158C12.5325 1.54872 12.3188 1.41727 12.1017 1.32723C11.3105 0.999168 10.6804 2.53017 11.2861 3.1358L21.288 13.1378C21.305 13.1583 21.3218 13.1782 21.3384 13.1973C22.0622 14.0321 23.494 12.4942 22.7022 11.7235L12.7003 1.72158Z" fill="#F1F1F1"/>
<path d="M10.831 1.9687C11.143 1.65676 11.4724 1.28225 11.9135 1.27781C12.2742 1.27419 12.5 1.50001 12.5 1.50001C13.5 2.49999 13.1045 2.52368 12.7139 2.9142L2.71198 12.9162C2.69498 12.9367 2.67821 12.9566 2.66166 12.9757C1.93781 13.8105 0.505977 12.2726 1.29776 11.5019L10.831 1.9687Z" fill="#F1F1F1"/>
<path d="M8 16C8 15.4477 8.44772 15 9 15C9.55228 15 10 15.4477 10 16V22C10 22.5523 9.55228 23 9 23C8.44772 23 8 22.5523 8 22V16Z" fill="#F1F1F1"/>
<path d="M14 16C14 15.4477 14.4477 15 15 15C15.5523 15 16 15.4477 16 16V22C16 22.5523 15.5523 23 15 23C14.4477 23 14 22.5523 14 22V16Z" fill="#F1F1F1"/>
<path d="M8 16C8 15.4747 8.10346 14.9546 8.30448 14.4693C8.5055 13.984 8.80014 13.543 9.17157 13.1716C9.54301 12.8001 9.98396 12.5055 10.4693 12.3045C10.9546 12.1035 11.4747 12 12 12C12.5253 12 13.0454 12.1035 13.5307 12.3045C14.016 12.5055 14.457 12.8001 14.8284 13.1716C15.1999 13.543 15.4945 13.984 15.6955 14.4693C15.8965 14.9546 16 15.4747 16 16L14.0047 16C14.0047 15.7367 13.9529 15.4761 13.8521 15.2328C13.7514 14.9896 13.6037 14.7686 13.4175 14.5825C13.2314 14.3963 13.0104 14.2486 12.7672 14.1479C12.5239 14.0471 12.2633 13.9953 12 13.9953C11.7367 13.9953 11.4761 14.0471 11.2328 14.1479C10.9896 14.2486 10.7686 14.3963 10.5825 14.5825C10.3963 14.7686 10.2486 14.9896 10.1479 15.2328C10.0471 15.4761 9.99529 15.7367 9.99529 16H8Z" fill="#F1F1F1"/>
</svg>
