<svg width="110" height="31" viewBox="0 0 110 31" fill="none" xmlns="http://www.w3.org/2000/svg">
<path d="M0.571167 4.048C0.571167 2.78667 1.49517 2.156 3.34317 2.156C4.13517 2.156 5.64583 2.18533 7.87517 2.244C10.3392 2.36133 12.2018 2.42 13.4632 2.42C14.4898 2.42 15.7365 2.36133 17.2032 2.244C18.2005 2.18533 18.8312 2.156 19.0952 2.156C20.7085 2.21467 22.0725 2.508 23.1872 3.036C23.5098 3.18267 23.7738 3.35867 23.9792 3.564C24.1845 3.76933 24.2872 4.10667 24.2872 4.576C24.2872 5.22133 24.0818 5.77867 23.6712 6.248C23.2605 6.688 22.7618 6.908 22.1752 6.908C21.5298 6.908 20.5912 6.82 19.3592 6.644C18.2738 6.43867 17.3205 6.336 16.4992 6.336C15.7072 6.336 15.1058 6.35067 14.6952 6.38C14.6072 7.348 14.5632 9.66533 14.5632 13.332C14.5632 17.7027 14.6952 22.132 14.9592 26.62L15.0472 27.896C15.0472 29.0987 14.3578 29.7 12.9792 29.7C11.8938 29.7 11.1605 29.4507 10.7792 28.952C10.3978 28.424 10.2072 27.632 10.2072 26.576C10.2072 24.4933 10.1485 21.8973 10.0312 18.788C9.91383 16.2067 9.85517 14.3733 9.85517 13.288C9.85517 12.5547 9.94317 10.3107 10.1192 6.556L4.97117 6.6C3.3285 6.6 2.1845 6.45333 1.53917 6.16C0.893834 5.83733 0.571167 5.13333 0.571167 4.048Z" fill="#E1E1E3"/>
<path d="M32.4072 1.804C32.4072 2.56667 32.3926 3.46133 32.3632 4.488C32.3339 5.48533 32.3046 6.248 32.2752 6.776C32.1872 8.272 32.1432 9.768 32.1432 11.264C32.1432 12.3787 32.1872 13.5373 32.2752 14.74C33.1846 13.42 34.1672 12.452 35.2232 11.836C36.2792 11.22 37.5552 10.912 39.0512 10.912C40.1366 10.912 41.1486 11.396 42.0872 12.364C43.0259 13.332 43.6272 14.4613 43.8912 15.752C43.9792 16.896 44.0232 18.2893 44.0232 19.932C44.0232 20.988 44.0819 22.3667 44.1992 24.068C44.2579 24.7133 44.4192 25.3147 44.6832 25.872C44.9766 26.4293 45.3872 26.708 45.9152 26.708C46.1792 26.708 46.3846 26.6933 46.5312 26.664C46.7072 26.6347 46.8686 26.62 47.0152 26.62C47.4259 26.62 47.7046 26.7227 47.8512 26.928C48.0272 27.1333 48.1152 27.4267 48.1152 27.808C48.1152 28.512 47.7632 29.04 47.0592 29.392C46.3552 29.744 45.7099 29.92 45.1232 29.92C43.0112 29.92 41.5592 29.04 40.7672 27.28C40.3272 26.2827 40.0486 24.992 39.9312 23.408C39.8139 21.7947 39.7552 19.9173 39.7552 17.776C39.7552 15.664 39.0366 14.608 37.5992 14.608C36.8072 14.608 36.0006 15.0333 35.1792 15.884C34.3872 16.7053 33.7272 17.8053 33.1992 19.184C32.6712 20.5333 32.4072 21.9413 32.4072 23.408L32.4512 27.984C32.4512 28.6293 32.2019 29.1133 31.7032 29.436C31.2046 29.7293 30.7352 29.876 30.2952 29.876C29.6499 29.876 29.0632 29.6853 28.5352 29.304C28.0072 28.8933 27.7432 28.4387 27.7432 27.94C27.9486 25.74 28.0512 22.0587 28.0512 16.896C28.0512 15.9573 27.9779 12.4813 27.8312 6.468L27.6992 2.42C27.6992 1.77467 27.9926 1.21733 28.5792 0.747998C29.1659 0.249333 29.8259 0 30.5592 0C31.2046 0 31.6739 0.146667 31.9672 0.44C32.2606 0.733333 32.4072 1.188 32.4072 1.804Z" fill="#E1E1E3"/>
<path d="M59.2952 0.776615C59.8818 0.629948 60.4392 0.673948 60.9672 0.908616C61.7592 1.28995 62.1112 1.96462 62.0232 2.93262C61.9938 3.07928 61.9645 3.21128 61.9352 3.32862C61.6125 4.44328 60.8792 5.19128 59.7352 5.57262C59.6765 5.57262 59.6178 5.58728 59.5592 5.61662C58.7085 5.85128 57.9898 5.67528 57.4032 5.08861C56.7285 4.38461 56.6552 3.53395 57.1832 2.53662C57.5938 1.59795 58.2978 1.01128 59.2952 0.776615ZM55.3792 10.4126C55.7898 10.3246 56.3178 10.3099 56.9632 10.3686C58.6645 10.6913 59.7352 11.6153 60.1752 13.1406C60.3218 13.7566 60.3218 14.4019 60.1752 15.0766L58.1952 20.4446C56.8752 23.906 56.2005 25.7099 56.1712 25.8566C55.8192 27.0006 55.8045 27.7339 56.1272 28.0566C56.2152 28.1153 56.3765 28.1446 56.6112 28.1446C56.9338 28.1446 57.1392 28.1299 57.2272 28.1006C58.4885 27.6606 59.4565 26.3553 60.1312 24.1846C60.1898 24.0673 60.2338 23.9353 60.2632 23.7886C60.4098 23.3486 60.5565 23.1139 60.7032 23.0846C60.7912 23.0553 61.0552 23.0406 61.4952 23.0406C62.0525 23.0406 62.3605 23.07 62.4192 23.1286C62.5658 23.246 62.5952 23.4953 62.5072 23.8766C61.9498 25.8126 61.0698 27.3819 59.8672 28.5846C59.0458 29.3473 58.2098 29.8606 57.3592 30.1246C57.0658 30.1833 56.6698 30.2126 56.1712 30.2126C55.6432 30.2126 55.2618 30.1833 55.0272 30.1246C54.0885 29.8899 53.3845 29.4646 52.9152 28.8486C52.5632 28.4379 52.3285 27.9686 52.2112 27.4406C52.0645 26.7953 52.0645 26.1353 52.2112 25.4606L54.2352 20.0486C55.5845 16.4406 56.3032 14.4606 56.3912 14.1086C56.5085 13.6099 56.5085 13.1699 56.3912 12.7886C56.2445 12.4366 55.9218 12.3193 55.4232 12.4366C54.5432 12.6126 53.7512 13.2873 53.0472 14.4606C52.6072 15.1939 52.2552 16.0886 51.9912 17.1446C51.9032 17.3206 51.8445 17.4233 51.8152 17.4526C51.7565 17.5113 51.4485 17.5406 50.8912 17.5406H50.0552L49.9232 17.4086C49.7765 17.2913 49.7912 16.9833 49.9672 16.4846C50.7005 14.0206 51.8885 12.2459 53.5312 11.1606C53.6778 11.0726 53.8392 10.9846 54.0152 10.8966C54.5432 10.6033 54.9978 10.4419 55.3792 10.4126Z" fill="#3C56D8"/>
<path d="M69.4471 10.4126C69.8871 10.2953 70.4885 10.2953 71.2511 10.4126C72.9231 10.8233 74.0085 11.7326 74.5071 13.1406L74.5951 13.4046L75.0791 12.9646C75.6365 12.4073 76.1498 11.9819 76.6191 11.6886C78.0858 10.7499 79.6991 10.2953 81.4591 10.3246C83.1311 10.4126 84.4071 10.8819 85.2871 11.7326C86.4311 12.8473 86.8271 14.4753 86.4751 16.6166C86.1818 18.3179 85.3751 20.8993 84.0551 24.3606C83.5565 25.7393 83.3071 26.7073 83.3071 27.2646C83.3071 27.7339 83.4098 28.0273 83.6151 28.1446C83.8498 28.2619 84.2165 28.2326 84.7151 28.0566C85.8591 27.6166 86.7831 26.3993 87.4871 24.4046C87.5458 24.1993 87.6045 23.9939 87.6631 23.7886C87.8098 23.3486 87.9565 23.1139 88.1031 23.0846C88.1911 23.0553 88.4551 23.0406 88.8951 23.0406C89.4525 23.0406 89.7751 23.07 89.8631 23.1286C89.9218 23.1873 89.9511 23.3046 89.9511 23.4806C89.9511 23.9793 89.6578 24.8153 89.0711 25.9886C88.5431 27.0739 87.8978 27.9686 87.1351 28.6726C85.9911 29.7579 84.7445 30.2859 83.3951 30.2566C81.7231 30.1686 80.5498 29.4793 79.8751 28.1886C79.6111 27.6606 79.4791 27.0593 79.4791 26.3846C79.5085 25.798 79.6845 25.1086 80.0071 24.3166C81.1218 21.2659 81.8405 19.0513 82.1631 17.6726C82.6325 15.9126 82.7205 14.5633 82.4271 13.6246C82.1925 12.8033 81.6205 12.3926 80.7111 12.3926C78.2471 12.3926 76.1645 13.8153 74.4631 16.6606L74.1991 17.1446L72.7471 22.8646C71.8378 26.6193 71.3098 28.6286 71.1631 28.8926C70.7525 29.7726 70.0631 30.2273 69.0951 30.2566C68.6258 30.2566 68.2151 30.1246 67.8631 29.8606C67.7165 29.802 67.5845 29.6406 67.4671 29.3766C67.3205 29.0833 67.3058 28.6433 67.4231 28.0566C67.5698 27.3819 68.0831 25.2699 68.9631 21.7206C70.1071 17.1739 70.6938 14.8126 70.7231 14.6366C70.8991 13.2873 70.6645 12.5393 70.0191 12.3926C69.1978 12.3046 68.5085 12.9793 67.9511 14.4166C67.7458 14.9446 67.5405 15.6339 67.3351 16.4846L67.1151 17.2766C66.7925 17.4526 66.4405 17.5406 66.0591 17.5406H65.2231L65.0911 17.4086C64.9738 17.2913 64.9738 16.9833 65.0911 16.4846C66.1471 12.8179 67.5991 10.7939 69.4471 10.4126Z" fill="#3C56D8"/>
<path d="M103.442 10.3686H105.246C107.387 10.6913 108.722 11.5859 109.25 13.0526C109.543 13.9326 109.47 14.8273 109.03 15.7366C108.825 16.1179 108.634 16.3966 108.458 16.5726C107.666 17.306 106.815 17.5993 105.906 17.4526C105.466 17.3939 105.085 17.2326 104.762 16.9686C104.469 16.6753 104.293 16.3233 104.234 15.9126C104.087 15.0326 104.381 14.1966 105.114 13.4046C105.319 13.1993 105.539 13.0379 105.774 12.9206C105.862 12.8619 105.921 12.8179 105.95 12.7886C105.95 12.7006 105.554 12.5833 104.762 12.4366C102.826 12.1726 101.081 12.8326 99.5259 14.4166C98.4993 15.5313 97.6779 17.2619 97.062 19.6086C97.0326 19.8139 96.9886 20.0193 96.9299 20.2246C96.3433 22.5713 96.1086 24.2139 96.226 25.1526C96.4313 26.7073 97.2673 27.6753 98.7339 28.0566C99.3499 28.2326 100.259 28.2326 101.462 28.0566C103.31 27.7926 104.879 27.1619 106.17 26.1646C106.727 25.8126 107.197 25.3873 107.578 24.8886C107.901 24.5073 108.165 24.3899 108.37 24.5366C108.458 24.5953 108.619 24.7419 108.854 24.9766C109.265 25.4166 109.455 25.6953 109.426 25.8126C109.309 26.1353 108.795 26.6779 107.886 27.4406C107.739 27.5579 107.607 27.6606 107.49 27.7486C105.407 29.3326 102.899 30.1686 99.966 30.2566C98.03 30.2859 96.3873 29.846 95.0379 28.9366C94.3633 28.5259 93.7619 27.9393 93.2339 27.1766C92.6766 26.3553 92.2953 25.4459 92.09 24.4486C91.5326 21.7206 92.1926 18.9633 94.0699 16.1766C94.2753 15.8539 94.4953 15.5459 94.7299 15.2526C95.2286 14.6073 95.9326 13.9033 96.8419 13.1406C98.9246 11.4686 101.125 10.5446 103.442 10.3686Z" fill="#3C56D8"/>
</svg>
