<svg width="24" height="24" viewBox="0 0 24 24" fill="none" xmlns="http://www.w3.org/2000/svg">
<path d="M1 2C1 1.44772 1.44772 1 2 1V1C2.55228 1 3 1.44772 3 2V22C3 22.5523 2.55228 23 2 23V23C1.44772 23 1 22.5523 1 22V2Z" fill="#F1F1F1"/>
<path d="M1 2C1 1.44772 1.44772 1 2 1H10C10.5523 1 11 1.44772 11 2V2C11 2.55228 10.5523 3 10 3H2C1.44772 3 1 2.55228 1 2V2Z" fill="#F1F1F1"/>
<path d="M1 22C1 21.4477 1.44772 21 2 21H10C10.5523 21 11 21.4477 11 22V22C11 22.5523 10.5523 23 10 23H2C1.44772 23 1 22.5523 1 22V22Z" fill="#F1F1F1"/>
<path d="M5 12C5 11.4477 5.44772 11 6 11H18C18.5523 11 19 11.4477 19 12V12C19 12.5523 18.5523 13 18 13H6C5.44772 13 5 12.5523 5 12V12Z" fill="#F1F1F1"/>
<path d="M14.7071 8.46447C14.3166 8.07394 14.3166 7.44078 14.7071 7.05025C15.0976 6.65973 15.7308 6.65973 16.1213 7.05025L20.364 11.2929C20.7545 11.6834 20.7545 12.3166 20.364 12.7071C19.9734 13.0976 19.3403 13.0976 18.9497 12.7071L14.7071 8.46447Z" fill="#F1F1F1"/>
<path d="M14.7071 15.5355C14.3166 15.926 14.3166 16.5592 14.7071 16.9497C15.0976 17.3402 15.7308 17.3402 16.1213 16.9497L20.364 12.707C20.7545 12.3165 20.7545 11.6834 20.364 11.2928C19.9734 10.9023 19.3403 10.9023 18.9497 11.2928L14.7071 15.5355Z" fill="#F1F1F1"/>
</svg>
