<svg width="25" height="24" viewBox="0 0 25 24" fill="none" xmlns="http://www.w3.org/2000/svg">
<path d="M0.5 6C0.5 5.44772 0.947715 5 1.5 5H23.5C24.0523 5 24.5 5.44772 24.5 6C24.5 6.55228 24.0523 7 23.5 7H1.5C0.947716 7 0.5 6.55228 0.5 6Z" fill="#F1F1F1"/>
<path d="M0.5 12C0.5 11.4477 0.947715 11 1.5 11H23.5C24.0523 11 24.5 11.4477 24.5 12C24.5 12.5523 24.0523 13 23.5 13H1.5C0.947716 13 0.5 12.5523 0.5 12Z" fill="#F1F1F1"/>
<path d="M0.5 18C0.5 17.4477 0.947715 17 1.5 17H23.5C24.0523 17 24.5 17.4477 24.5 18C24.5 18.5523 24.0523 19 23.5 19H1.5C0.947716 19 0.5 18.5523 0.5 18Z" fill="#F1F1F1"/>
</svg>
