<svg width="24" height="24" viewBox="0 0 24 24" fill="none" xmlns="http://www.w3.org/2000/svg">
<g clip-path="url(#clip0_100_235)">
<path d="M17.6467 0.707107C18.0372 0.316582 18.6704 0.316582 19.0609 0.707107L23.3036 4.94975C23.6941 5.34027 23.6941 5.97344 23.3036 6.36396C22.913 6.75449 22.2799 6.75449 21.8893 6.36396L17.6467 2.12132C17.2562 1.7308 17.2562 1.09763 17.6467 0.707107Z" fill="#F1F1F1"/>
<path d="M21.6929 5.14614C22.1919 4.64714 22.913 4.5592 23.3035 4.94972C23.6941 5.34025 23.6061 6.06135 23.1071 6.56035L9.85526 19.8122C9.07478 20.5927 7.82057 21.9937 7.04009 21.2132C6.64957 20.8227 6.73751 20.1015 7.23651 19.6025L21.6929 5.14614Z" fill="#F1F1F1"/>
<path d="M18.8645 2.31771C19.3635 1.81871 19.4514 1.0976 19.0609 0.707078C18.6704 0.316554 17.9493 0.404493 17.4503 0.903496L4.19842 14.1554C3.41794 14.9358 2.01699 16.1901 2.79747 16.9705C3.18799 17.3611 3.90909 17.2731 4.4081 16.7741L18.8645 2.31771Z" fill="#F1F1F1"/>
<path d="M6.95809 19.5275C8.45433 19.0919 8.03989 19.7011 8.18283 20.2346C8.45433 21.2132 8.45433 21.2132 7.39367 21.5668L2.88758 22.6887C2.35411 22.8316 1.40177 22.2427 1.66283 21.9816C1.51989 21.4481 1.83648 20.8998 2.36994 20.7569L6.95809 19.5275Z" fill="#F1F1F1"/>
<path d="M4.4832 17.0526C4.91879 15.5564 4.30956 15.9708 3.7761 15.8279C2.79746 15.5564 2.79746 15.5564 2.44391 16.617L1.32196 21.1231C1.17902 21.6566 1.74867 22.6283 2.02907 22.3479C2.56254 22.4908 3.11087 22.1742 3.25381 21.6408L4.4832 17.0526Z" fill="#F1F1F1"/>
<rect x="4.91879" y="14.8492" width="6" height="2" transform="rotate(45 4.91879 14.8492)" fill="#F1F1F1"/>
<path d="M18 15C18 14.4477 18.4477 14 19 14C19.5523 14 20 14.4477 20 15V21C20 21.5523 19.5523 22 19 22C18.4477 22 18 21.5523 18 21V15Z" fill="#F1F1F1"/>
<path d="M22 17C22.5523 17 23 17.4477 23 18C23 18.5523 22.5523 19 22 19L16 19C15.4477 19 15 18.5523 15 18C15 17.4477 15.4477 17 16 17L22 17Z" fill="#F1F1F1"/>
</g>
<defs>
<clipPath id="clip0_100_235">
<rect width="24" height="24" fill="white"/>
</clipPath>
</defs>
</svg>
