<svg width="24" height="24" viewBox="0 0 24 24" fill="none" xmlns="http://www.w3.org/2000/svg">
<path d="M22.02 12C22.5612 12 23.0045 12.4397 22.9564 12.9788C22.7572 15.2093 21.8806 17.3346 20.4327 19.0633C18.7742 21.0433 16.4719 22.3766 13.9291 22.8295C11.3863 23.2825 8.7652 22.8262 6.52503 21.5407C4.28486 20.2552 2.56848 18.2223 1.67662 15.7984C0.784748 13.3744 0.774269 10.714 1.64702 8.28305C2.51976 5.85215 4.22007 3.80587 6.45005 2.50274C8.68002 1.1996 11.2974 0.722705 13.8437 1.15562C16.0668 1.53357 18.1118 2.58395 19.7092 4.15343C20.0953 4.53276 20.0426 5.15489 19.6305 5.50569C19.2183 5.8565 18.6031 5.8022 18.2098 5.4304C16.9162 4.20767 15.2843 3.38871 13.5152 3.08793C11.4226 2.73216 9.2716 3.12408 7.43897 4.19501C5.60635 5.26595 4.20901 6.94761 3.49177 8.94536C2.77454 10.9431 2.78315 13.1295 3.5161 15.1216C4.24905 17.1136 5.65959 18.7842 7.50059 19.8407C9.3416 20.8971 11.4957 21.2721 13.5854 20.8999C15.6751 20.5276 17.5671 19.4319 18.9301 17.8047C20.0824 16.429 20.7943 14.7477 20.9869 12.9781C21.0455 12.4401 21.4787 12 22.02 12Z" fill="#F1F1F1"/>
<path d="M16 7C15.4477 7 15 6.55228 15 6C15 5.44772 15.4477 5 16 5L20 5C20.5523 5 21 5.44772 21 6C21 6.55228 20.5523 7 20 7L16 7Z" fill="#F1F1F1"/>
<path d="M19 2C19 1.44772 19.4477 1 20 1C20.5523 1 21 1.44772 21 2V6C21 6.55228 20.5523 7 20 7C19.4477 7 19 6.55228 19 6V2Z" fill="#F1F1F1"/>
</svg>
