<svg width="24" height="24" viewBox="0 0 24 24" fill="none" xmlns="http://www.w3.org/2000/svg">
<path d="M5 2C5 1.44772 5.44772 1 6 1C6.55228 1 7 1.44772 7 2V22C7 22.5523 6.55228 23 6 23C5.44772 23 5 22.5523 5 22V2Z" fill="#F1F1F1"/>
<path d="M17 2C17 1.44772 17.4477 1 18 1C18.5523 1 19 1.44772 19 2V22C19 22.5523 18.5523 23 18 23C17.4477 23 17 22.5523 17 22V2Z" fill="#F1F1F1"/>
<path d="M5 2C5 1.44772 5.44772 1 6 1H18C18.5523 1 19 1.44772 19 2C19 2.55228 18.5523 3 18 3H6C5.44772 3 5 2.55228 5 2Z" fill="#F1F1F1"/>
<path d="M12.7923 15.2094C12.4074 14.8133 11.7743 14.8042 11.3782 15.189C10.9821 15.5739 10.973 16.207 11.3579 16.6031L17.1827 22.5982C17.5675 22.9943 18.2006 23.0034 18.5967 22.6185C18.9929 22.2337 19.002 21.6006 18.6171 21.2045L12.7923 15.2094Z" fill="#F1F1F1"/>
<path d="M11.2191 15.2047C11.5974 14.8024 12.2303 14.7829 12.6326 15.1613C13.035 15.5396 13.0544 16.1725 12.676 16.5748L6.90475 22.7118C6.52639 23.1141 5.89353 23.1335 5.4912 22.7552C5.08887 22.3768 5.06944 21.7439 5.4478 21.3416L11.2191 15.2047Z" fill="#F1F1F1"/>
</svg>
