<svg width="134" height="120" viewBox="0 0 134 120" fill="none" xmlns="http://www.w3.org/2000/svg">
<g clip-path="url(#clip0_113_2134)">
<g filter="url(#filter0_d_113_2134)">
<path d="M0 10C0 7.79086 1.79086 6 4 6H119C121.209 6 123 7.79086 123 10C123 12.2091 121.209 14 119 14H4C1.79086 14 0 12.2091 0 10Z" fill="#1D3BCF"/>
<path d="M0 24C0 21.7909 1.79086 20 4 20H72C74.2091 20 76 21.7909 76 24C76 26.2091 74.2091 28 72 28H4C1.79086 28 0 26.2091 0 24Z" fill="#E1E1E3"/>
<path d="M0 38C0 35.7909 1.79086 34 4 34H101C103.209 34 105 35.7909 105 38C105 40.2091 103.209 42 101 42H4C1.79086 42 0 40.2091 0 38Z" fill="#F1F1F1"/>
<path d="M0 52C0 49.7909 1.79086 48 4 48H58C60.2091 48 62 49.7909 62 52C62 54.2091 60.2091 56 58 56H4C1.79086 56 0 54.2091 0 52Z" fill="#1D3BCF"/>
</g>
<g filter="url(#filter1_d_113_2134)">
<path d="M0 68C0 65.7909 1.79086 64 4 64H119C121.209 64 123 65.7909 123 68C123 70.2091 121.209 72 119 72H4C1.79086 72 0 70.2091 0 68Z" fill="#3C56D8"/>
<path d="M0 82C0 79.7909 1.79086 78 4 78H72C74.2091 78 76 79.7909 76 82C76 84.2091 74.2091 86 72 86H4C1.79086 86 0 84.2091 0 82Z" fill="#E1E1E3"/>
<path d="M0 96C0 93.7909 1.79086 92 4 92H130C132.209 92 134 93.7909 134 96C134 98.2091 132.209 100 130 100H4C1.79086 100 0 98.2091 0 96Z" fill="#3C56D8"/>
<path d="M0 110C0 107.791 1.79086 106 4 106H88C90.2091 106 92 107.791 92 110C92 112.209 90.2091 114 88 114H4C1.79086 114 0 112.209 0 110Z" fill="#F1F1F1"/>
</g>
</g>
<defs>
<filter id="filter0_d_113_2134" x="-4" y="6" width="131" height="58" filterUnits="userSpaceOnUse" color-interpolation-filters="sRGB">
<feFlood flood-opacity="0" result="BackgroundImageFix"/>
<feColorMatrix in="SourceAlpha" type="matrix" values="0 0 0 0 0 0 0 0 0 0 0 0 0 0 0 0 0 0 127 0" result="hardAlpha"/>
<feOffset dy="4"/>
<feGaussianBlur stdDeviation="2"/>
<feComposite in2="hardAlpha" operator="out"/>
<feColorMatrix type="matrix" values="0 0 0 0 0 0 0 0 0 0 0 0 0 0 0 0 0 0 0.5 0"/>
<feBlend mode="normal" in2="BackgroundImageFix" result="effect1_dropShadow_113_2134"/>
<feBlend mode="normal" in="SourceGraphic" in2="effect1_dropShadow_113_2134" result="shape"/>
</filter>
<filter id="filter1_d_113_2134" x="-4" y="64" width="142" height="58" filterUnits="userSpaceOnUse" color-interpolation-filters="sRGB">
<feFlood flood-opacity="0" result="BackgroundImageFix"/>
<feColorMatrix in="SourceAlpha" type="matrix" values="0 0 0 0 0 0 0 0 0 0 0 0 0 0 0 0 0 0 127 0" result="hardAlpha"/>
<feOffset dy="4"/>
<feGaussianBlur stdDeviation="2"/>
<feComposite in2="hardAlpha" operator="out"/>
<feColorMatrix type="matrix" values="0 0 0 0 0 0 0 0 0 0 0 0 0 0 0 0 0 0 0.5 0"/>
<feBlend mode="normal" in2="BackgroundImageFix" result="effect1_dropShadow_113_2134"/>
<feBlend mode="normal" in="SourceGraphic" in2="effect1_dropShadow_113_2134" result="shape"/>
</filter>
<clipPath id="clip0_113_2134">
<rect width="134" height="120" fill="white"/>
</clipPath>
</defs>
</svg>
