<svg width="24" height="24" viewBox="0 0 24 24" fill="none" xmlns="http://www.w3.org/2000/svg">
<g clip-path="url(#clip0_108_1757)">
<path d="M3.02448 23C2.45867 23 1.99456 22.5401 2.05241 21.9773C2.28638 19.7009 3.2962 17.5617 4.92893 15.9289C6.80429 14.0536 9.34783 13 12 13C14.6522 13 17.1957 14.0536 19.0711 15.9289C20.7038 17.5617 21.7136 19.7008 21.9476 21.9772C22.0054 22.5401 21.5413 23 20.9755 23C20.4097 23 19.9579 22.5394 19.8852 21.9783C19.6608 20.2465 18.8705 18.626 17.6222 17.3778C16.1311 15.8866 14.1087 15.0489 12 15.049C9.89125 15.049 7.86887 15.8866 6.37776 17.3778C5.12954 18.626 4.3392 20.2465 4.11484 21.9783C4.04214 22.5394 3.59028 23 3.02448 23Z" fill="#F1F1F1"/>
<path d="M17 7C17 9.76142 14.7614 12 12 12C9.23858 12 7 9.76142 7 7C7 4.23858 9.23858 2 12 2C14.7614 2 17 4.23858 17 7ZM8.96516 7C8.96516 8.67609 10.3239 10.0348 12 10.0348C13.6761 10.0348 15.0348 8.67609 15.0348 7C15.0348 5.32391 13.6761 3.96516 12 3.96516C10.3239 3.96516 8.96516 5.32391 8.96516 7Z" fill="#F1F1F1"/>
</g>
<defs>
<clipPath id="clip0_108_1757">
<rect width="24" height="24" fill="white"/>
</clipPath>
</defs>
</svg>
