<svg width="24" height="24" viewBox="0 0 24 24" fill="none" xmlns="http://www.w3.org/2000/svg">
<path d="M18.364 4.22182C18.7545 3.83129 19.3877 3.83129 19.7782 4.22182C20.1687 4.61234 20.1687 5.24551 19.7782 5.63603L5.63605 19.7782C5.24552 20.1687 4.61236 20.1687 4.22183 19.7782C3.83131 19.3876 3.83131 18.7545 4.22183 18.364L18.364 4.22182Z" fill="#F1F1F1"/>
<path d="M19.7782 18.3639C20.1687 18.7545 20.1687 19.3876 19.7782 19.7782C19.3876 20.1687 18.7545 20.1687 18.364 19.7782L4.22182 5.63602C3.8313 5.24549 3.8313 4.61233 4.22182 4.2218C4.61234 3.83128 5.24551 3.83128 5.63603 4.2218L19.7782 18.3639Z" fill="#F1F1F1"/>
</svg>
